<svg xmlns="http://www.w3.org/2000/svg" width="30.849" height="17.352" viewBox="0 0 30.849 17.352"><defs><style>.a{fill:#a3a6b4;}</style></defs><path class="a" d="M2.571,26.028V8.676H33.419V26.028H2.571ZM4.5,10.544V24.1H31.491V10.544H4.5Zm18.316,6.808c0-3.194-2.157-5.784-4.82-5.784H30.527V23.136H17.995c2.663,0,4.82-2.59,4.82-5.784Zm3.856,1.928c.8,0,1.446-.864,1.446-1.928s-.648-1.928-1.446-1.928-1.446.864-1.446,1.928S25.873,19.28,26.671,19.28Zm-6.634-4.359a.246.246,0,0,1-.06.115.148.148,0,0,1-.105.036.5.5,0,0,1-.211-.083c-.1-.057-.215-.117-.355-.182a3.555,3.555,0,0,0-.488-.18,2.165,2.165,0,0,0-.608-.08,1.443,1.443,0,0,0-.452.063.934.934,0,0,0-.322.174.694.694,0,0,0-.193.267.88.88,0,0,0-.063.33.728.728,0,0,0,.142.449,1.358,1.358,0,0,0,.38.337,3.911,3.911,0,0,0,.54.277c.2.087.4.178.614.274a6.179,6.179,0,0,1,.614.329,2.445,2.445,0,0,1,.537.44,2.081,2.081,0,0,1,.38.6,2.109,2.109,0,0,1,.144.817A2.41,2.41,0,0,1,20.3,19.98a2.231,2.231,0,0,1-.622.773,2.692,2.692,0,0,1-.915.467c-.044.013-.093.019-.138.03V22.3h-.948v-.928l-.035,0a4.064,4.064,0,0,1-.75-.065,4.474,4.474,0,0,1-.611-.158,2.681,2.681,0,0,1-.442-.194,1.245,1.245,0,0,1-.255-.179.452.452,0,0,1-.112-.226,2.059,2.059,0,0,1-.034-.425c0-.124,0-.228.013-.313a.934.934,0,0,1,.04-.205.219.219,0,0,1,.072-.112.177.177,0,0,1,.105-.033.5.5,0,0,1,.238.1,4.114,4.114,0,0,0,.394.22,3.606,3.606,0,0,0,.576.221,2.749,2.749,0,0,0,.774.1,1.78,1.78,0,0,0,.518-.069,1.15,1.15,0,0,0,.388-.2.845.845,0,0,0,.244-.313.994.994,0,0,0,.085-.417.737.737,0,0,0-.145-.455,1.447,1.447,0,0,0-.377-.337,3.931,3.931,0,0,0-.526-.277q-.295-.13-.608-.274a5.454,5.454,0,0,1-.608-.329A2.45,2.45,0,0,1,16.1,17a2.066,2.066,0,0,1-.376-.605,2.182,2.182,0,0,1-.145-.837,2.218,2.218,0,0,1,.207-.984,2.016,2.016,0,0,1,.56-.7,2.4,2.4,0,0,1,.831-.418,3.378,3.378,0,0,1,.507-.105v-1h.948v1c.038,0,.075,0,.113.009a3.756,3.756,0,0,1,.518.114,2.766,2.766,0,0,1,.428.161.989.989,0,0,1,.247.149.456.456,0,0,1,.082.1.547.547,0,0,1,.036.112,1.076,1.076,0,0,1,.02.175c0,.069.006.157.006.261s0,.216-.009.3a1.347,1.347,0,0,1-.033.2Zm-6.862,2.431c0,3.194,2.157,5.784,4.82,5.784H5.463V11.568H17.995c-2.663,0-4.82,2.59-4.82,5.784ZM9.319,15.424c-.8,0-1.446.864-1.446,1.928S8.52,19.28,9.319,19.28s1.446-.864,1.446-1.928S10.117,15.424,9.319,15.424Z" transform="translate(-2.571 -8.676)"/></svg>