<svg xmlns="http://www.w3.org/2000/svg" width="29.25" height="27" viewBox="0 0 29.25 27"><defs><style>.a{fill:#a3a6b4;}</style></defs><g transform="translate(-3.375 -4.5)"><path class="a" d="M5.625,31.5h24.75a2.248,2.248,0,0,0,2.25-2.25V15.75H3.375v13.5A2.248,2.248,0,0,0,5.625,31.5Z"/><path class="a" d="M30.375,9h-.562V8.438a.564.564,0,0,0-.562-.562H27a.564.564,0,0,0-.562.563V9H24.469V6.75a2.257,2.257,0,0,0-2.25-2.25H13.781a2.257,2.257,0,0,0-2.25,2.25V9H9.563V8.438A.564.564,0,0,0,9,7.875H6.75a.564.564,0,0,0-.562.563V9H5.625a2.248,2.248,0,0,0-2.25,2.25v2.813h29.25V11.25A2.248,2.248,0,0,0,30.375,9ZM22.5,9h-9V7.031a.564.564,0,0,1,.563-.562h7.875a.564.564,0,0,1,.563.563Z"/></g></svg>